P1
#deve sair XXPBPBXPBBPXBPP
3 5
1 1 0 1 0
1 1 0 0 1
0 0 1 1 1
